<?xml version="1.0" standalone="no"?>
<!DOCTYPE svg PUBLIC "-//W3C//DTD SVG 20010904//EN"
 "http://www.w3.org/TR/2001/REC-SVG-20010904/DTD/svg10.dtd">
<svg version="1.0" xmlns="http://www.w3.org/2000/svg"
 width="260.000000pt" height="260.000000pt" viewBox="0 0 260.000000 260.000000"
 preserveAspectRatio="xMidYMid meet">
<metadata>
Created by potrace 1.14, written by Peter Selinger 2001-2017
</metadata>
<g transform="translate(0.000000,260.000000) scale(0.100000,-0.100000)"
fill="#000000" stroke="none">
<path d="M540 2585 c-36 -8 -108 -35 -160 -61 -78 -38 -110 -62 -176 -128 -90
-90 -129 -153 -170 -271 -27 -75 -28 -90 -29 -245 0 -143 3 -176 23 -245 82
-283 282 -539 534 -683 111 -63 103 -64 123 20 45 184 129 350 257 506 33 40
59 75 57 77 -2 2 -60 20 -129 40 -69 20 -163 57 -210 81 -223 114 -382 355
-425 644 -7 45 -6 44 98 -96 179 -240 277 -310 562 -399 83 -26 181 -63 218
-82 l69 -34 61 40 c96 62 244 128 353 157 54 14 100 27 102 28 4 5 -60 120
-101 181 -113 168 -294 320 -477 402 -126 56 -216 75 -370 79 -102 3 -164 -1
-210 -11z"/>
<path d="M1690 1771 c-225 -49 -407 -155 -582 -340 -431 -454 -387 -1127 87
-1356 128 -62 216 -79 379 -72 102 4 151 11 221 31 252 75 481 246 631 471
113 171 164 325 171 521 7 164 -10 250 -74 383 -83 173 -246 305 -438 357 -94
25 -292 28 -395 5z m674 -273 c-21 -134 -95 -317 -170 -419 -57 -78 -168 -173
-252 -217 -42 -22 -140 -58 -217 -81 -297 -88 -392 -156 -586 -415 -51 -69
-94 -124 -96 -123 -6 7 38 190 61 252 101 265 275 422 560 505 310 90 426 170
608 418 49 67 91 122 94 122 2 0 1 -19 -2 -42z"/>
</g>
</svg>
